<?xml version="1.0" standalone="no"?>
<!DOCTYPE svg PUBLIC "-//W3C//DTD SVG 20010904//EN"
 "http://www.w3.org/TR/2001/REC-SVG-20010904/DTD/svg10.dtd">
<svg version="1.0" xmlns="http://www.w3.org/2000/svg"
 width="512.000000pt" height="512.000000pt" viewBox="0 0 512.000000 512.000000"
 preserveAspectRatio="xMidYMid meet">
<metadata>
Created by potrace 1.11, written by Peter Selinger 2001-2013
</metadata>
<g transform="translate(0.000000,512.000000) scale(0.100000,-0.100000)"
fill="#000000" stroke="none">
<path d="M2338 4565 c-2 -2 -30 -6 -63 -9 -61 -7 -90 -12 -135 -21 -14 -3 -38
-8 -55 -11 -253 -45 -597 -211 -838 -403 -189 -151 -383 -381 -503 -597 l-21
-37 -138 183 c-76 102 -145 197 -152 212 -16 31 -43 198 -45 278 -2 47 5 68
45 149 26 52 45 96 43 98 -8 8 -118 -216 -112 -226 2 -3 7 -46 11 -95 3 -50 8
-93 11 -97 2 -4 5 -32 5 -63 1 -31 5 -56 9 -56 8 0 298 -383 306 -405 3 -7 -1
-24 -9 -37 -9 -13 -28 -54 -43 -93 -33 -86 -35 -88 -65 -75 -51 23 -74 40
-127 97 -30 32 -110 116 -178 187 -68 70 -131 142 -139 160 -7 17 -17 56 -21
86 -4 30 -8 64 -9 75 -2 11 -6 45 -10 75 -4 30 -9 57 -11 59 -2 2 5 20 16 40
48 90 90 182 80 176 -6 -4 -33 -51 -60 -106 -48 -95 -50 -102 -44 -162 3 -34
7 -73 10 -87 2 -14 7 -59 10 -100 7 -71 9 -77 48 -115 48 -48 260 -269 329
-343 26 -29 52 -52 58 -52 5 0 23 -7 39 -15 l29 -15 -15 -42 c-36 -103 -78
-309 -89 -443 -11 -126 -6 -360 10 -445 1 -8 6 -35 10 -60 9 -57 46 -219 57
-250 3 -8 18 -51 34 -95 43 -124 89 -221 185 -385 8 -13 38 -58 68 -100 292
-406 704 -681 1196 -798 338 -81 744 -63 1080 46 290 95 573 267 796 484 108
105 262 306 355 464 10 17 16 15 85 -35 41 -30 78 -60 82 -67 10 -17 167 -20
167 -4 0 6 -28 10 -65 10 -37 0 -65 4 -65 10 0 6 -5 10 -11 10 -18 0 -169 110
-169 123 0 7 6 21 13 32 7 11 28 55 46 97 19 43 36 78 38 78 9 0 83 -86 88
-102 4 -10 11 -18 16 -18 5 0 45 -26 89 -58 44 -31 122 -88 175 -125 52 -38
95 -73 95 -78 0 -5 38 -9 85 -9 97 0 117 16 24 19 -73 3 -83 8 -275 146 -147
106 -284 234 -284 266 0 9 7 36 15 60 29 80 61 215 72 302 3 26 9 47 12 47 3
0 57 -14 120 -31 62 -16 115 -28 117 -26 2 2 -49 20 -114 40 l-118 37 2 202
c1 151 -3 232 -15 317 l-18 113 31 29 c17 16 37 29 44 29 7 0 10 5 7 10 -3 6
-2 10 4 10 12 0 91 80 91 92 0 15 -13 8 -45 -24 -52 -52 -105 -98 -105 -91 0
4 -6 -2 -14 -13 -16 -21 -17 -21 -35 51 -14 51 -14 68 -1 60 6 -4 10 -3 9 2
-4 21 2 33 17 33 8 0 13 4 10 8 -3 5 7 21 22 37 15 16 27 32 27 35 1 3 7 16
14 28 19 35 9 36 -21 2 -14 -17 -23 -30 -20 -30 4 0 0 -6 -9 -13 -8 -7 -18
-20 -22 -30 -4 -11 -12 -15 -18 -11 -7 4 -9 3 -6 -3 4 -6 0 -16 -8 -23 -12
-10 -16 -9 -19 1 -164 481 -420 824 -818 1091 -234 157 -554 281 -813 314 -22
3 -65 9 -95 14 -49 7 -385 12 -392 5z m353 -399 c246 -27 506 -119 709 -250
334 -217 587 -564 689 -946 34 -124 35 -147 12 -160 -12 -6 -21 -8 -21 -4 0 3
-8 -3 -17 -14 -10 -11 -30 -27 -44 -36 l-26 -17 -21 53 c-11 29 -39 106 -62
171 -23 64 -48 117 -55 117 -6 0 -23 -14 -37 -30 l-25 -31 -7 38 c-3 21 -6 53
-6 71 0 46 -26 41 -74 -13 l-39 -44 -21 42 c-30 61 -98 122 -162 146 -62 24
-159 27 -214 7 -31 -11 -36 -11 -55 11 -30 35 -89 42 -125 15 -16 -12 -44 -24
-62 -26 -45 -6 -114 -21 -232 -52 l-100 -26 -17 23 c-9 12 -32 51 -50 86 -19
35 -39 71 -44 81 -6 9 -23 40 -37 68 l-26 50 -249 -82 -248 -83 -252 251 -251
251 41 32 c48 36 195 124 247 148 202 92 389 143 565 154 49 3 91 7 93 8 4 4
164 -3 223 -9z m-1267 -795 l179 -178 -93 -31 c-51 -17 -97 -29 -101 -26 -5 3
-18 7 -30 9 -11 2 -63 25 -115 50 -51 25 -95 45 -98 45 -2 0 -24 12 -50 26
l-47 26 27 47 c44 75 135 211 142 211 4 0 87 -81 186 -179z m1149 -56 c37 -74
67 -137 67 -140 0 -3 -6 -5 -12 -5 -7 0 -33 38 -58 85 -25 47 -46 85 -47 85
-1 0 -81 -27 -179 -60 -97 -33 -184 -60 -193 -60 -9 0 -36 19 -59 43 l-42 42
148 49 c81 27 176 59 212 72 36 12 72 23 80 23 10 1 40 -48 83 -134z m-30 -87
c20 -40 35 -73 34 -74 -1 -1 -64 -22 -141 -47 l-138 -46 -65 62 -64 63 148 50
c81 27 151 49 155 49 3 0 10 3 14 8 14 14 20 7 57 -65z m-1322 -39 c81 -40
147 -76 146 -82 -4 -21 43 -15 140 18 56 19 108 35 116 35 7 0 32 -20 56 -44
l43 -43 -186 -62 c-114 -39 -194 -60 -206 -56 -12 4 -20 2 -20 -6 0 -8 -4 -8
-12 -2 -7 5 -79 38 -160 73 -82 34 -148 68 -148 74 0 21 64 166 73 166 6 0 77
-32 158 -71z m1829 -9 c0 -5 -6 -10 -13 -10 -15 0 -80 -65 -96 -96 -10 -21
-51 -40 -51 -24 0 5 -2 15 -5 22 -4 9 10 23 37 38 24 13 61 36 82 52 43 31 46
32 46 18z m701 -107 c0 -10 3 -31 5 -47 5 -27 -17 -76 -35 -76 -4 0 -14 18
-21 39 -12 37 -11 42 11 70 28 34 39 38 40 14z m-2628 -74 c78 -33 157 -70
176 -80 21 -12 37 -16 45 -11 14 12 376 132 396 132 9 0 44 -29 80 -65 56 -56
61 -65 44 -71 -36 -13 -269 -106 -299 -119 -16 -7 -73 -32 -125 -55 -311 -136
-421 -218 -273 -204 46 4 293 61 351 81 10 3 -39 -27 -108 -67 -164 -95 -240
-151 -240 -178 0 -40 243 35 615 191 72 30 172 73 223 96 l94 41 28 -22 c16
-13 29 -26 29 -29 1 -3 -24 -16 -55 -29 -37 -15 -62 -33 -73 -51 -12 -21 -41
-39 -115 -71 -103 -45 -139 -78 -129 -119 4 -15 -11 -26 -88 -62 -79 -36 -96
-49 -109 -77 -12 -27 -28 -39 -79 -60 -67 -29 -81 -42 -81 -78 0 -18 -11 -28
-45 -43 -31 -14 -50 -17 -62 -11 -35 18 -116 33 -125 24 -15 -15 68 -105 126
-139 30 -18 58 -16 112 7 42 18 49 19 64 5 33 -30 12 -36 460 156 113 48 251
108 308 132 56 25 102 44 102 43 0 -9 -41 -116 -54 -141 -14 -27 -314 -297
-355 -319 -9 -5 -20 -14 -26 -20 -12 -14 -304 -158 -325 -161 -8 -1 -22 -5
-30 -8 -9 -4 -40 -9 -70 -10 -81 -5 -71 -22 12 -21 71 0 78 3 249 87 96 48
178 87 182 87 3 0 21 15 40 33 18 17 60 55 92 83 156 134 221 190 239 207 11
9 23 17 27 17 4 0 11 15 14 33 4 17 16 60 26 93 17 55 23 64 56 76 l36 15 44
-46 c26 -27 42 -52 39 -61 -18 -57 -36 -92 -72 -140 -22 -30 -80 -109 -129
-175 -48 -66 -104 -136 -124 -156 -57 -58 -273 -219 -293 -219 -10 0 -18 -4
-18 -10 0 -6 -28 -10 -65 -10 -37 0 -65 -4 -65 -10 0 -6 32 -10 75 -10 l76 0
149 115 c82 63 154 115 160 115 6 0 14 8 17 17 12 31 300 413 307 406 3 -3 6
7 6 24 0 16 3 32 6 35 6 7 914 -891 914 -903 0 -15 -147 -111 -250 -163 -555
-284 -1216 -228 -1715 144 -209 157 -388 375 -495 605 -148 316 -189 644 -124
998 2 12 13 58 24 101 11 44 20 81 20 83 0 7 15 1 153 -58z m1737 36 c0 -8 -4
-15 -10 -15 -5 0 -7 7 -4 15 4 8 8 15 10 15 2 0 4 -7 4 -15z m-50 -9 c0 -8 -4
-17 -9 -20 -10 -7 -23 19 -14 28 11 11 23 6 23 -8z m1109 -185 c47 -132 44
-160 -13 -106 -19 18 -48 35 -65 38 -27 6 -31 11 -32 39 0 18 -2 42 -4 52 -13
68 -9 96 20 132 l29 36 12 -39 c6 -21 30 -89 53 -152z m-1179 138 c0 -6 -4 -7
-10 -4 -5 3 -10 11 -10 16 0 6 5 7 10 4 6 -3 10 -11 10 -16z m-98 -51 c-20 -9
-41 -17 -45 -17 -15 -2 5 21 36 39 24 15 33 16 39 7 5 -8 -5 -18 -30 -29z
m1131 -80 l6 -68 -24 18 c-29 21 -34 76 -8 104 9 10 17 17 18 16 2 -2 5 -33 8
-70z m-1230 32 c-17 -30 -43 -37 -50 -14 -3 9 48 42 65 44 2 0 -5 -14 -15 -30z
m1584 -99 c1 -13 -14 -26 -52 -45 -55 -27 -75 -32 -75 -18 0 11 67 52 85 52 9
0 14 4 11 9 -4 5 0 12 6 14 21 9 24 8 25 -12z m8 -51 c3 -5 0 -10 -7 -10 -9 0
-10 -2 -1 -8 6 -4 12 -43 15 -94 2 -55 -1 -84 -7 -80 -5 3 -24 5 -41 3 -30 -2
-33 0 -52 56 -11 32 -23 65 -27 74 -4 12 2 21 26 33 18 9 40 16 51 16 10 0 18
5 18 10 0 6 4 10 9 10 6 0 13 -4 16 -10z m-165 -34 c0 -2 -7 -7 -16 -10 -8 -3
-12 -2 -9 4 6 10 25 14 25 6z m-290 -66 c0 -41 40 -92 85 -110 22 -8 41 -20
41 -25 1 -6 5 -48 9 -95 3 -47 8 -98 10 -115 3 -16 5 -57 6 -89 0 -36 6 -64
14 -70 21 -18 155 -205 155 -217 0 -10 -24 -60 -74 -154 -27 -52 -121 -185
-128 -182 -13 4 -918 909 -918 918 0 12 27 11 35 -1 3 -5 16 -10 28 -10 14 0
30 -13 45 -35 22 -34 54 -46 67 -25 10 17 25 11 25 -10 0 -32 34 -43 63 -20
25 20 87 131 87 156 0 7 5 16 10 19 7 4 9 -3 5 -22 -15 -72 -17 -143 -5 -158
29 -34 53 -17 168 120 97 114 120 136 160 151 26 10 51 21 56 25 16 14 56 -22
56 -51z m325 -26 c14 -38 25 -70 25 -71 0 -2 -11 -3 -25 -3 -20 0 -25 5 -25
25 0 14 -9 42 -20 63 -19 34 -19 38 -3 49 9 7 18 11 20 10 1 -2 14 -35 28 -73z
m-642 -39 c-3 -9 -8 -14 -10 -11 -3 3 -2 9 2 15 9 16 15 13 8 -4z m639 -52
c-8 -3 -1 -11 19 -22 22 -11 36 -29 45 -56 17 -48 16 -45 4 -45 -16 0 -110 91
-110 106 0 7 8 15 18 17 24 6 40 7 24 0z m-98 -55 c10 -2 39 -22 65 -46 26
-24 64 -48 87 -54 58 -16 70 -51 49 -144 -19 -83 -39 -151 -67 -221 l-20 -53
-66 87 c-80 107 -84 119 -107 408 l-7 80 23 -27 c13 -14 32 -28 43 -30z m239
35 c-2 -7 -4 -33 -5 -58 -2 -52 -16 -55 -35 -7 -12 30 -12 32 7 32 32 0 23 26
-12 38 l-33 11 40 -2 c25 -1 39 -6 38 -14z"/>
<path d="M4910 2165 c-7 -16 -18 -45 -26 -63 -17 -40 -18 -84 -2 -100 19 -19
63 -14 83 8 16 18 17 25 6 60 -6 22 -20 59 -30 82 l-19 43 -12 -30z"/>
</g>
</svg>
